<?xml version="1.0" encoding="UTF-8" standalone="no"?>
<!-- Created with Inkscape (http://www.inkscape.org/) -->

<svg
   width="1060"
   height="360"
   viewBox="0 0 280.45833 95.250003"
   version="1.1"
   id="svg5"
   inkscape:version="1.1 (c68e22c387, 2021-05-23)"
   sodipodi:docname="crosslines.svg"
   xmlns:inkscape="http://www.inkscape.org/namespaces/inkscape"
   xmlns:sodipodi="http://sodipodi.sourceforge.net/DTD/sodipodi-0.dtd"
   xmlns="http://www.w3.org/2000/svg"
   xmlns:svg="http://www.w3.org/2000/svg">
  <sodipodi:namedview
     id="namedview7"
     pagecolor="#ffffff"
     bordercolor="#666666"
     borderopacity="1.0"
     inkscape:pageshadow="2"
     inkscape:pageopacity="0.0"
     inkscape:pagecheckerboard="0"
     inkscape:document-units="mm"
     showgrid="false"
     width="1060mm"
     units="px"
     inkscape:zoom="1.4703704"
     inkscape:rotation="-1"
     inkscape:cx="507.46203"
     inkscape:cy="134.69559"
     inkscape:window-width="1920"
     inkscape:window-height="998"
     inkscape:window-x="-11"
     inkscape:window-y="-11"
     inkscape:window-maximized="1"
     inkscape:current-layer="layer1" />
  <defs
     id="defs2">
    <filter
       inkscape:label="Chalk and Sponge"
       inkscape:menu="Distort"
       inkscape:menu-tooltip="Low turbulence gives sponge look and high turbulence chalk"
       width="1"
       height="1.0000001"
       y="-2.5717896e-08"
       x="-2.4607674e-08"
       style="color-interpolation-filters:sRGB;"
       id="filter1605">
      <feTurbulence
         baseFrequency="1"
         type="fractalNoise"
         seed="577"
         numOctaves="6"
         result="result1"
         id="feTurbulence1601" />
      <feDisplacementMap
         xChannelSelector="R"
         yChannelSelector="G"
         scale="6.192660550458716"
         in="SourceGraphic"
         in2="result1"
         id="feDisplacementMap1603" />
    </filter>
    <filter
       inkscape:label="Chalk and Sponge"
       inkscape:menu="Distort"
       inkscape:menu-tooltip="Low turbulence gives sponge look and high turbulence chalk"
       width="1"
       height="1"
       y="-4.7975121e-09"
       x="-1.6700786e-09"
       style="color-interpolation-filters:sRGB;"
       id="filter3233">
      <feTurbulence
         baseFrequency="0.87777777777777777"
         type="turbulence"
         seed="0"
         numOctaves="6"
         result="result1"
         id="feTurbulence3229" />
      <feDisplacementMap
         xChannelSelector="R"
         yChannelSelector="G"
         scale="2.5806451612903225"
         in="SourceGraphic"
         in2="result1"
         id="feDisplacementMap3231" />
    </filter>
    <filter
       inkscape:label="Chalk and Sponge"
       inkscape:menu="Distort"
       inkscape:menu-tooltip="Low turbulence gives sponge look and high turbulence chalk"
       width="1"
       height="1"
       y="-5.2599249e-09"
       x="-1.6325694e-09"
       style="color-interpolation-filters:sRGB;"
       id="filter3585">
      <feTurbulence
         baseFrequency="1"
         type="fractalNoise"
         seed="402"
         numOctaves="6"
         result="result1"
         id="feTurbulence3581" />
      <feDisplacementMap
         xChannelSelector="R"
         yChannelSelector="G"
         scale="3.870967741935484"
         in="SourceGraphic"
         in2="result1"
         id="feDisplacementMap3583" />
    </filter>
  </defs>
  <g
     inkscape:label="Layer 1"
     inkscape:groupmode="layer"
     id="layer1">
    <g
       id="g3579"
       style="filter:url(#filter3585)">
      <path
         style="opacity:1;fill:#c0c4c9;fill-opacity:1;stroke:#b8c3c9;stroke-width:0;stroke-miterlimit:4;stroke-dasharray:none;stroke-opacity:1"
         id="path3409"
         d="m 11.491114,87.146782 c 1.58669,1.182413 0.758652,0.572247 2.485735,1.82829 1.143765,0.831749 2.320033,-0.785781 1.176268,-1.617528 v 0 c -1.703064,-1.238361 -0.886494,-0.636743 -2.451308,-1.802685 -1.12566,-0.856092 -2.336355,0.735832 -1.210695,1.591923 z" />
      <path
         style="opacity:1;fill:#c0c4c9;fill-opacity:1;stroke:#b8c3c9;stroke-width:0;stroke-miterlimit:4;stroke-dasharray:none;stroke-opacity:1"
         id="path3411"
         d="m 11.260238,73.768079 c 4.972526,4.079261 10.005433,8.082187 15.195136,11.881844 1.141149,0.835335 2.32249,-0.778494 1.181342,-1.613828 v 0 C 22.4685,80.253643 17.459023,76.265346 12.507141,72.204354 11.40142,71.322659 10.154517,72.886387 11.260238,73.768079 Z" />
      <path
         style="opacity:1;fill:#c0c4c9;fill-opacity:1;stroke:#b8c3c9;stroke-width:0;stroke-miterlimit:4;stroke-dasharray:none;stroke-opacity:1"
         id="path3413"
         d="m 11.32879,52.687079 c 5.83405,5.051163 11.532325,10.250403 17.200757,15.486126 4.016219,3.762309 8.101975,7.44842 12.203562,11.116958 1.054108,0.942795 2.38742,-0.547936 1.333315,-1.490731 v 0 C 37.97273,74.138088 33.894966,70.459062 29.886571,66.704024 24.208496,61.459435 18.500473,56.251424 12.656677,51.191511 11.599152,50.252553 10.271265,51.74812 11.32879,52.687079 Z" />
      <path
         style="opacity:1;fill:#c0c4c9;fill-opacity:1;stroke:#b8c3c9;stroke-width:0;stroke-miterlimit:4;stroke-dasharray:none;stroke-opacity:1"
         id="path3415"
         d="m 13.637199,24.309231 c 9.088188,9.174999 18.053587,18.470634 27.074487,27.711609 10.554686,10.819402 21.360555,21.38789 32.649469,31.440352 1.207553,1.050174 2.415106,2.10035 3.622662,3.150524 1.06713,0.928028 2.379556,-0.581123 1.312425,-1.509152 v 0 C 77.094547,84.057545 75.892852,83.012525 74.691157,81.967506 63.436467,71.946735 52.665449,61.409256 42.142838,50.623771 33.114948,41.375644 24.142685,32.072728 15.047232,22.890848 14.044284,21.893804 12.63425,23.312187 13.637199,24.309231 Z" />
      <path
         style="opacity:1;fill:#c0c4c9;fill-opacity:1;stroke:#b8c3c9;stroke-width:0;stroke-miterlimit:4;stroke-dasharray:none;stroke-opacity:1"
         id="path3417"
         d="m 22.180537,10.032188 c 9.328001,9.133691 18.515819,18.409639 27.698114,27.689407 12.434261,12.519887 24.815747,25.091834 37.26434,37.5975 1.482595,1.473637 2.965191,2.947276 4.447783,4.420913 1.00303,0.996965 2.41295,-0.421532 1.409923,-1.418495 v 0 C 91.520609,76.850382 90.040522,75.379248 88.560438,73.908117 76.113247,61.40387 63.733171,48.833336 51.300313,36.314866 42.104193,27.021144 32.902657,17.731119 23.560132,8.5841818 22.536237,7.6086607 21.156642,9.056667 22.180537,10.032188 Z" />
      <path
         style="opacity:1;fill:#c0c4c9;fill-opacity:1;stroke:#b8c3c9;stroke-width:0;stroke-miterlimit:4;stroke-dasharray:none;stroke-opacity:1"
         id="path3419"
         d="m 56.482204,14.176188 c 8.064804,9.735375 15.836569,19.708962 23.633605,29.65866 7.627479,9.746512 15.206823,19.53182 23.122311,29.048091 3.90957,4.700222 4.79909,5.679427 8.57544,10.019665 0.92831,1.066885 2.43711,-0.245944 1.50881,-1.312828 v 0 c -3.75933,-4.32035 -4.64524,-5.295527 -8.53824,-9.975644 C 96.878067,62.109569 89.308394,52.335773 81.690026,42.601218 73.882088,32.637632 66.099329,22.650232 58.023204,12.901304 c -0.901478,-1.089651 -2.442478,0.185233 -1.541,1.274884 z" />
      <path
         style="opacity:1;fill:#c0c4c9;fill-opacity:1;stroke:#b8c3c9;stroke-width:0;stroke-miterlimit:4;stroke-dasharray:none;stroke-opacity:1"
         id="path3421"
         d="m 83.681839,16.049125 c 7.660518,10.591707 14.980954,21.429371 22.366011,32.21452 6.74257,10.070145 13.74037,19.960413 20.94641,29.702675 0.84101,1.136973 2.44893,-0.0524 1.60792,-1.189368 v 0 C 121.41026,67.054478 114.42717,57.183572 107.69805,47.133676 100.29159,36.317277 92.950838,25.447453 85.265143,14.82718 c -0.864045,-1.119566 -2.447351,0.102379 -1.583304,1.221945 z" />
      <path
         style="opacity:1;fill:#c0c4c9;fill-opacity:1;stroke:#b8c3c9;stroke-width:0;stroke-miterlimit:4;stroke-dasharray:none;stroke-opacity:1"
         id="path3423"
         d="m 95.130992,9.6487661 c 7.783368,6.9830719 15.210438,14.3615959 22.364418,21.9865179 2.38103,2.537772 4.71264,5.121458 7.06896,7.682188 12.8743,14.218181 25.13569,28.971848 37.84569,43.334439 0.93722,1.059066 2.43497,-0.266361 1.49775,-1.325427 v 0 C 151.18905,66.954344 138.92014,52.190028 126.03608,37.963186 123.67044,35.392542 121.32966,32.798805 118.93917,30.251254 111.7353,22.57404 104.25651,15.144544 96.416327,8.1164741 95.332832,7.207605 94.047497,8.739897 95.130992,9.6487661 Z" />
      <path
         style="opacity:1;fill:#c0c4c9;fill-opacity:1;stroke:#b8c3c9;stroke-width:0;stroke-miterlimit:4;stroke-dasharray:none;stroke-opacity:1"
         id="path3425"
         d="m 132.05183,15.974372 c 7.50051,10.771248 14.97177,21.561975 22.53199,32.291565 8.47897,12.065584 17.49912,23.729915 26.87489,35.107797 0.89938,1.091388 2.44283,-0.180522 1.54346,-1.27191 v 0 C 173.65792,70.763119 164.66892,59.138277 156.21873,47.113954 148.67509,36.407947 141.22131,25.64021 133.73504,14.894183 c -0.76381,-1.19021 -2.44702,-0.11002 -1.68321,1.080189 z" />
      <path
         style="opacity:1;fill:#c0c4c9;fill-opacity:1;stroke:#b8c3c9;stroke-width:0;stroke-miterlimit:4;stroke-dasharray:none;stroke-opacity:1"
         id="path3427"
         d="m 161.0377,23.373308 c 0.48097,0.733976 0.97675,1.458453 1.44289,2.20193 3.3787,5.38887 6.57047,10.899188 9.75566,16.403119 2.10445,3.636439 6.84399,11.903147 8.90875,15.501099 4.63802,8.193817 9.48752,16.263755 14.48898,24.239865 0.75132,1.198131 2.44573,0.135599 1.69441,-1.062532 v 0 c -4.98789,-7.953843 -9.82353,-16.001698 -14.44873,-24.172807 -2.06437,-3.597264 -6.81155,-11.877302 -8.91498,-15.511878 -3.20294,-5.534445 -6.41266,-11.075206 -9.81136,-16.493212 -0.47432,-0.756142 -0.97874,-1.492987 -1.46811,-2.239481 -0.80178,-1.164965 -2.44929,-0.03107 -1.64751,1.133897 z" />
      <path
         style="opacity:1;fill:#c0c4c9;fill-opacity:1;stroke:#b8c3c9;stroke-width:0;stroke-miterlimit:4;stroke-dasharray:none;stroke-opacity:1"
         id="path3429"
         d="m 179.98677,18.363498 c 0.33561,0.554324 0.68105,1.102815 1.00683,1.662971 2.85881,4.915527 5.54016,9.933452 8.26616,14.922724 4.94252,9.046056 3.65957,6.696797 8.85723,16.057229 5.35645,9.68733 10.9688,19.22835 16.66798,28.716758 0.72819,1.212329 2.44268,0.182512 1.71449,-1.029816 v 0 c -5.68761,-9.468909 -11.28848,-18.990371 -16.63395,-28.657862 -5.19489,-9.35536 -3.90825,-6.999497 -8.84958,-16.043323 -2.74066,-5.016058 -5.43336,-10.063745 -8.31235,-15.002988 -0.34562,-0.592963 -0.71287,-1.17306 -1.0693,-1.75959 -0.80178,-1.164964 -2.44929,-0.03107 -1.64751,1.133897 z" />
      <path
         style="opacity:1;fill:#c0c4c9;fill-opacity:1;stroke:#b8c3c9;stroke-width:0;stroke-miterlimit:4;stroke-dasharray:none;stroke-opacity:1"
         id="path3431"
         d="m 198.24552,24.193751 c 5.68962,10.039572 11.46801,20.026733 17.36193,29.947706 4.28292,7.121337 8.77538,14.116825 13.51029,20.946345 1.26159,1.819672 2.56775,3.608027 3.85162,5.412041 0.82005,1.152184 2.44948,-0.0075 1.62943,-1.159721 v 0 c -1.27519,-1.791518 -2.57254,-3.567467 -3.82557,-5.374553 -4.7127,-6.796524 -9.18381,-13.758431 -13.44632,-20.845629 -5.89233,-9.918065 -11.6685,-19.90268 -17.35687,-29.939147 -0.71627,-1.21941 -2.44078,-0.206452 -1.72451,1.012958 z" />
      <path
         style="opacity:1;fill:#c0c4c9;fill-opacity:1;stroke:#b8c3c9;stroke-width:0;stroke-miterlimit:4;stroke-dasharray:none;stroke-opacity:1"
         id="path3433"
         d="m 219.52068,19.623903 c 5.5661,11.786768 11.78518,23.243994 18.15922,34.608454 3.61792,6.505128 7.55817,12.816734 11.56739,19.084329 0.76211,1.191297 2.44686,0.113509 1.68474,-1.077788 v 0 c -3.98892,-6.234713 -7.90859,-12.513611 -11.50779,-18.984936 -6.35318,-11.326487 -12.5518,-22.74553 -18.09936,-34.493131 -0.61029,-1.275757 -2.41448,-0.412685 -1.8042,0.863072 z" />
      <path
         style="opacity:1;fill:#c0c4c9;fill-opacity:1;stroke:#b8c3c9;stroke-width:0;stroke-miterlimit:4;stroke-dasharray:none;stroke-opacity:1"
         id="path3435"
         d="m 247.37423,20.950045 c 2.84637,11.903026 5.11736,23.93658 7.48048,35.942552 1.67137,8.680733 3.38061,17.354142 5.08973,26.027509 0.27342,1.387531 2.23569,1.000858 1.96227,-0.386673 v 0 c -1.7091,-8.673224 -3.41831,-17.346495 -5.08965,-26.027083 -2.3705,-12.043484 -4.6486,-24.114672 -7.50586,-36.054434 -0.35223,-1.369648 -2.2892,-0.871519 -1.93697,0.498129 z" />
      <path
         style="opacity:1;fill:#c0c4c9;fill-opacity:1;stroke:#b8c3c9;stroke-width:0;stroke-miterlimit:4;stroke-dasharray:none;stroke-opacity:1"
         id="path3437"
         d="m 264.73898,13.525858 c 3.27205,12.249983 5.96911,24.645338 8.54602,37.057061 1.89828,9.999348 1.03796,5.187548 2.60432,14.431193 0.2363,1.39433 2.20819,1.060135 1.97186,-0.334196 v 0 c -1.57536,-9.293711 -0.71046,-4.457789 -2.61795,-14.503587 -2.58408,-12.444846 -5.28844,-24.873291 -8.56919,-37.156037 -0.3575,-1.368285 -2.29255,-0.862719 -1.93506,0.505566 z" />
      <path
         style="opacity:1;fill:#c0c4c9;fill-opacity:1;stroke:#b8c3c9;stroke-width:0;stroke-miterlimit:4;stroke-dasharray:none;stroke-opacity:1"
         id="path3439"
         d="m 230.07364,18.325966 c 2.91059,4.758916 5.74953,9.5599 8.66946,14.313618 0.74021,1.205029 2.44438,0.158219 1.70417,-1.04681 v 0 c -2.91836,-4.75079 -5.75535,-9.549069 -8.66427,-14.30512 -0.7342,-1.2087 -2.44356,-0.170388 -1.70936,1.038312 z" />
      <path
         style="opacity:1;fill:#c0c4c9;fill-opacity:1;stroke:#b8c3c9;stroke-width:0;stroke-miterlimit:4;stroke-dasharray:none;stroke-opacity:1"
         id="path3441"
         d="m 10.11745,23.542175 c 0.960204,-3.357293 2.229435,-6.624907 3.821396,-9.734435 0.513691,-1.003374 1.090465,-1.97318 1.635696,-2.95977 0.683307,-1.2381825 -1.067747,-2.2045237 -1.751053,-0.9663417 v 0 c -0.564524,1.0243377 -1.161738,2.0313277 -1.693572,3.0730127 -1.62479,3.182415 -2.9263589,6.524186 -3.9107263,9.957758 -0.4453187,1.342272 1.4529405,1.972048 1.8982593,0.629776 z" />
      <path
         style="opacity:1;fill:#c0c4c9;fill-opacity:1;stroke:#b8c3c9;stroke-width:0;stroke-miterlimit:4;stroke-dasharray:none;stroke-opacity:1"
         id="path3443"
         d="M 7.9377989,62.623744 C 9.3023586,56.670979 11.501513,50.954945 14.063258,45.422446 14.889186,43.638723 15.783663,41.887547 16.643865,40.120096 20.6963,32.098477 25.789591,24.6985 30.853041,17.300627 31.651813,16.133592 30.001376,15.003961 29.202605,16.170995 v 0 C 24.083684,23.649966 18.93863,31.133727 14.84542,39.245111 13.974019,41.0368 13.067626,42.81189 12.231217,44.620179 9.613,50.280686 7.3696273,56.130549 5.978785,62.220916 c -0.2848425,1.385231 1.6741714,1.78806 1.9590139,0.402828 z" />
      <path
         style="opacity:1;fill:#c0c4c9;fill-opacity:1;stroke:#b8c3c9;stroke-width:0;stroke-miterlimit:4;stroke-dasharray:none;stroke-opacity:1"
         id="path3445"
         d="m 21.662076,83.554982 c 3.995992,-9.974115 8.691008,-19.651427 13.433146,-29.286584 6.042684,-12.075697 12.369993,-24.024891 19.388822,-35.566267 0.92914,-1.527829 1.89747,-3.031478 2.846205,-4.547217 0.754124,-1.105683 1.508247,-2.211367 2.26237,-3.31705 0.796637,-1.1684924 -0.855861,-2.2951051 -1.652497,-1.1266128 v 0 c -0.768406,1.1275418 -1.536814,2.2550838 -2.305222,3.3826248 -0.9568,1.528963 -1.933292,3.045776 -2.870396,4.586889 -7.045431,11.586551 -13.397891,23.581767 -19.463739,35.704497 -4.776449,9.705813 -9.507127,19.454018 -13.52473,29.504245 -0.47056,1.333632 1.415481,1.999107 1.886041,0.665475 z" />
      <path
         style="opacity:1;fill:#c0c4c9;fill-opacity:1;stroke:#b8c3c9;stroke-width:0;stroke-miterlimit:4;stroke-dasharray:none;stroke-opacity:1"
         id="path3447"
         d="M 42.939239,85.884873 C 46.381791,76.361998 50.377238,67.061516 54.450228,57.79567 60.459315,44.119008 67.218633,30.797378 74.159382,17.576082 77.411571,11.430281 75.860123,14.370445 78.815456,8.7565049 79.474231,7.505098 77.704473,6.5734506 77.0457,7.8248575 v 0 c -2.954351,5.6120875 -1.402554,2.6712435 -4.65714,8.8216055 -6.962159,13.262224 -13.741649,26.625429 -19.769259,40.344408 -4.088905,9.302549 -8.099507,18.64007 -11.555963,28.200455 -0.49041,1.326462 1.385491,2.020007 1.875901,0.693547 z" />
      <path
         style="opacity:1;fill:#c0c4c9;fill-opacity:1;stroke:#b8c3c9;stroke-width:0;stroke-miterlimit:4;stroke-dasharray:none;stroke-opacity:1"
         id="path3449"
         d="m 64.805811,80.803789 c 2.302298,-7.715383 5.498023,-15.126602 8.614722,-22.537838 6.002819,-14.06221 13.076652,-27.619129 20.203935,-41.13308 3.35045,-6.312846 1.768557,-3.322623 4.748109,-8.9693841 0.659979,-1.2507727 -1.108882,-2.1841222 -1.768859,-0.9333495 v 0 c -2.97811,5.6440466 -1.396161,2.6537015 -4.748297,8.9697386 -7.154383,13.565421 -14.253697,27.174693 -20.278513,41.290798 -3.163456,7.523131 -6.41196,15.047293 -8.725117,22.886715 -0.301508,1.381699 1.652508,1.808099 1.95402,0.4264 z" />
      <path
         style="opacity:1;fill:#c0c4c9;fill-opacity:1;stroke:#b8c3c9;stroke-width:0;stroke-miterlimit:4;stroke-dasharray:none;stroke-opacity:1"
         id="path3451"
         d="m 84.369491,87.650044 c 3.227001,-8.310208 6.7725,-16.486809 10.392479,-24.631735 6.06566,-13.204089 12.70893,-26.131424 19.20382,-39.126868 3.11859,-6.299169 1.63504,-3.310328 4.44886,-8.967406 0.62981,-1.266227 -1.1609,-2.156924 -1.79072,-0.890697 v 0 c -2.81435,5.658163 -1.33138,2.670458 -4.44715,8.963988 -6.50837,13.022429 -13.16542,25.976628 -19.242441,39.20872 -3.623188,8.152535 -7.173354,16.336254 -10.402443,24.654542 -0.558231,1.299377 1.279366,2.088832 1.837595,0.789456 z" />
      <path
         style="opacity:1;fill:#c0c4c9;fill-opacity:1;stroke:#b8c3c9;stroke-width:0;stroke-miterlimit:4;stroke-dasharray:none;stroke-opacity:1"
         id="path3453"
         d="m 108.98568,78.839091 c 3.79688,-8.081603 7.488,-16.212082 11.27441,-24.299024 6.0483,-12.885652 12.41413,-25.618532 18.50798,-38.48225 2.64037,-5.702827 1.3905,-3.016607 3.74631,-8.0601882 0.5985,-1.2813291 -1.21357,-2.1277309 -1.81207,-0.8464018 v 0 c -2.35618,5.04439 -1.10787,2.3614335 -3.7417,8.05037 -6.09496,12.866509 -12.46263,25.601844 -18.51182,38.490404 -3.78571,8.085489 -7.4762,16.214489 -11.27235,24.294655 -0.60277,1.279327 1.20648,2.131761 1.80924,0.852435 z" />
      <path
         style="opacity:1;fill:#c0c4c9;fill-opacity:1;stroke:#b8c3c9;stroke-width:0;stroke-miterlimit:4;stroke-dasharray:none;stroke-opacity:1"
         id="path3455"
         d="m 124.73434,82.01426 c 3.49613,-7.95995 7.63627,-15.619769 11.75238,-23.270919 6.60893,-12.161874 13.41159,-24.216645 20.06374,-36.355165 2.99645,-5.442362 1.58713,-2.870121 4.23132,-7.714881 0.67751,-1.241362 -1.07804,-2.19951 -1.75555,-0.958148 v 0 c -2.64127,4.839446 -1.23252,2.268205 -4.22967,7.711859 -6.65462,12.143068 -13.45996,24.202278 -20.07115,36.368823 -4.14046,7.696784 -8.30399,15.402737 -11.82051,23.410264 -0.57146,1.293614 1.25798,2.101781 1.82944,0.808167 z" />
      <path
         style="opacity:1;fill:#c0c4c9;fill-opacity:1;stroke:#b8c3c9;stroke-width:0;stroke-miterlimit:4;stroke-dasharray:none;stroke-opacity:1"
         id="path3457"
         d="m 149.58001,79.585851 c 3.57434,-8.427426 7.8557,-16.523557 12.19584,-24.574278 5.89432,-10.819847 12.45539,-21.24883 18.89545,-31.745804 0.7232,-1.202593 1.4464,-2.405187 2.16959,-3.60778 0.72882,-1.211955 -0.98514,-2.242652 -1.71396,-1.030697 v 0 c -0.72012,1.197532 -1.44025,2.395063 -2.16037,3.592595 -6.45952,10.528743 -13.03982,20.989658 -18.95121,31.84266 -4.37326,8.113165 -8.68659,16.272507 -12.28642,24.76599 -0.5355,1.308909 1.31557,2.066223 1.85108,0.757314 z" />
      <path
         style="opacity:1;fill:#c0c4c9;fill-opacity:1;stroke:#b8c3c9;stroke-width:0;stroke-miterlimit:4;stroke-dasharray:none;stroke-opacity:1"
         id="path3459"
         d="m 170.88794,75.809376 c 3.75371,-7.718917 7.73319,-15.317938 11.88233,-22.830977 6.39834,-11.540871 13.65336,-22.568302 20.63108,-33.758652 0.74827,-1.20004 -0.94884,-2.258253 -1.69711,-1.058214 v 0 c -6.99626,11.220425 -14.27044,22.277574 -20.68475,33.850041 -4.15625,7.526938 -8.14482,15.1389 -11.90452,22.87229 -0.65444,1.253683 1.11854,2.179193 1.77297,0.925512 z" />
      <path
         style="opacity:1;fill:#c0c4c9;fill-opacity:1;stroke:#b8c3c9;stroke-width:0;stroke-miterlimit:4;stroke-dasharray:none;stroke-opacity:1"
         id="path3461"
         d="m 188.95748,80.577332 c 3.40402,-6.350683 6.66408,-12.776586 10.18557,-19.064563 1.14251,-2.040067 2.31806,-4.061452 3.47709,-6.092179 6.90334,-11.984241 14.49674,-23.543254 22.15533,-35.051826 0.78349,-1.177349 -0.88153,-2.285368 -1.66502,-1.10802 v 0 c -7.68391,11.546625 -15.30157,23.144415 -22.22733,35.1685 -1.16468,2.040832 -2.34593,4.072295 -3.49404,6.122495 -3.51624,6.279012 -6.77342,12.694722 -10.17041,19.037393 -0.69877,1.229524 1.04004,2.217724 1.73881,0.9882 z" />
      <path
         style="opacity:1;fill:#c0c4c9;fill-opacity:1;stroke:#b8c3c9;stroke-width:0;stroke-miterlimit:4;stroke-dasharray:none;stroke-opacity:1"
         id="path3463"
         d="m 209.58832,82.163739 c 4.65685,-8.486325 9.37597,-16.935979 14.21851,-25.318537 6.9922,-12.041637 14.70892,-23.637917 22.55775,-35.132015 0.93601,-1.379084 1.87202,-2.758168 2.80803,-4.137252 0.7942,-1.170148 -0.86064,-2.293317 -1.65484,-1.123168 v 0 c -0.93495,1.377527 -1.8699,2.755053 -2.80485,4.132579 -7.87704,11.535594 -15.6208,23.174191 -22.63789,35.259419 -4.81523,8.335481 -9.51974,16.731154 -14.1312,25.1807 -0.80488,1.162827 0.83961,2.301102 1.64449,1.138274 z" />
      <path
         style="opacity:1;fill:#c0c4c9;fill-opacity:1;stroke:#b8c3c9;stroke-width:0;stroke-miterlimit:4;stroke-dasharray:none;stroke-opacity:1"
         id="path3465"
         d="m 230.4015,78.004502 c 3.68401,-6.859521 7.75766,-13.496705 11.81249,-20.140194 7.22189,-11.786015 14.97372,-23.234954 22.24939,-34.986577 0.74442,-1.202435 -0.95608,-2.255195 -1.7005,-1.05276 v 0 c -7.27734,11.755551 -15.03323,23.206961 -22.25603,34.997392 -4.05872,6.64994 -8.13761,13.293018 -11.82425,20.159705 -0.72297,1.215451 0.99593,2.237883 1.7189,1.022434 z" />
      <path
         style="opacity:1;fill:#c0c4c9;fill-opacity:1;stroke:#b8c3c9;stroke-width:0;stroke-miterlimit:4;stroke-dasharray:none;stroke-opacity:1"
         id="path3467"
         d="m 250.91046,83.932039 c 4.55028,-7.885297 9.35604,-15.621806 14.05993,-23.416286 1.00491,-1.681207 2.00983,-3.362415 3.01474,-5.043622 0.72557,-1.213895 -0.99113,-2.240018 -1.7167,-1.026123 v 0 c -1.00345,1.678786 -2.00692,3.357576 -3.01037,5.036362 -4.71291,7.809436 -9.52784,15.560781 -14.08641,23.461469 -0.69876,1.229524 1.04005,2.217727 1.73881,0.9882 z" />
    </g>
  </g>
</svg>
